<svg xmlns="http://www.w3.org/2000/svg" viewBox="0 0 96 96">
  <path d="M48 6c-8 10-22 15-22 34v31h44V40C70 21 56 16 48 6Z" fill="none" stroke="black" stroke-width="5" stroke-linecap="round" stroke-linejoin="round"/>
  <path d="M32 72c8-4 19-4 32 0" fill="none" stroke="black" stroke-width="5" stroke-linecap="round"/>
  <path d="M17 62c10-3 20-2 31 5v18c-11-7-21-8-31-5V62Z" fill="none" stroke="black" stroke-width="5" stroke-linejoin="round"/>
  <path d="M79 62c-10-3-20-2-31 5v18c11-7 21-8 31-5V62Z" fill="none" stroke="black" stroke-width="5" stroke-linejoin="round"/>
  <path d="M48 67v18" fill="none" stroke="black" stroke-width="4" stroke-linecap="round"/>
  <path d="M57 21a12 12 0 0 1-14-15A13 13 0 1 0 57 21Z" fill="black"/>
  <text x="29" y="59" font-size="41" font-weight="700" fill="black" font-family="Georgia,serif">M</text>
</svg>